<svg width="24" height="24" viewBox="0 0 24 24" fill="none" xmlns="http://www.w3.org/2000/svg">
<path d="M21.7999 10.0408C22.8824 10.0408 23.76 9.16325 23.76 8.0807C23.76 6.99815 22.8824 6.12057 21.7999 6.12057C20.7173 6.12057 19.8397 6.99815 19.8397 8.0807C19.8397 9.16325 20.7173 10.0408 21.7999 10.0408Z" fill="#FDDF7F"/>
<path d="M17.385 12.936L17.394 13.5251C17.3995 13.8819 17.6902 14.1683 18.0471 14.1683C18.4039 14.1683 18.6946 13.8819 18.7001 13.5251L18.7091 12.936H17.385Z" fill="#FDDF7F"/>
<path d="M17.353 10.8412L17.385 12.936H18.7092L18.749 10.3297C18.3174 10.5813 17.8448 10.7549 17.353 10.8412Z" fill="#83E1E5"/>
<path d="M19.8398 8.08071C19.7321 8.13428 19.6222 8.18228 19.5102 8.22466C19.038 8.40341 18.505 8.29196 18.1425 7.9404C17.1362 6.96442 14.8802 4.77629 13.6192 3.55325L12.6686 4.5038L16.5035 8.45794H14.3811C13.8275 8.45794 13.2841 8.30871 12.8082 8.02594C12.7728 8.00492 12.7371 7.98452 12.7011 7.96479V10.9049H16.6225C17.6056 10.9049 18.5579 10.562 19.3153 9.93524L20.1958 9.20655C19.9717 8.88788 19.8398 8.49984 19.8398 8.08071Z" fill="#83E1E5"/>
<path d="M0.902568 8.45794C0.536615 8.45794 0.239975 8.75458 0.239975 9.12049C0.239975 9.45485 0.489095 9.73681 0.820871 9.77799L1.87942 9.90941V8.45785H0.902568V8.45794Z" fill="#FDDF7F"/>
<path d="M9.03032 8.03058C8.56228 8.31023 8.02722 8.45792 7.48194 8.45792H1.87952V9.90949L9.58007 10.8657C9.79036 10.8919 10.002 10.905 10.2139 10.905H12.7011V7.96482C11.5555 7.33472 10.1579 7.35685 9.03032 8.03058Z" fill="#AAB1BA"/>
<path d="M12.7011 20.8234V10.9049H11.1839V15.2833C11.1839 15.5285 11.1591 15.7731 11.1098 16.0133L9.93033 21.7607C9.71846 22.7931 10.5071 23.76 11.5609 23.76H12.7011V20.8234Z" fill="#AAB1BA"/>
<path d="M21.7999 23.76C22.8824 23.76 23.76 22.8824 23.76 21.7999C23.76 20.7173 22.8824 19.8397 21.7999 19.8397C20.7173 19.8397 19.8397 20.7173 19.8397 21.7999C19.8397 22.8824 20.7173 23.76 21.7999 23.76Z" fill="#FDDF7F"/>
<path d="M19.9588 22.471H18.8174L18.8265 23.0664C18.8323 23.4478 18.5248 23.76 18.1434 23.76H21.7999C20.9533 23.76 20.2328 23.2229 19.9588 22.471Z" fill="#FDDF7F"/>
<path d="M12.7011 10.9049H11.184V12.3731H12.7011V10.9049Z" fill="#FDDF7F"/>
<path d="M18.7192 16.0599L18.7001 14.8114C18.6947 14.4546 18.4039 14.1683 18.0471 14.1683C17.6903 14.1683 17.3995 14.4546 17.394 14.8114L17.3749 16.0599H18.7192Z" fill="#FDDF7F"/>
<path d="M18.7192 16.0599H17.3749L17.2977 21.1021C16.9001 20.9203 16.465 20.8234 16.0203 20.8234H12.701V23.76H17.9507H18.1434C18.5247 23.76 18.8323 23.4478 18.8264 23.0664L18.7192 16.0599Z" fill="#83E1E5"/>
<path d="M13.6192 3.55324L12.7228 2.68391C12.4667 2.43551 12.0586 2.43863 11.8063 2.69092C11.554 2.94321 11.5509 3.35131 11.7993 3.60743L12.6686 4.50378L13.6192 3.55324Z" fill="#FDDF7F"/>
<path d="M13.0949 0.7668C13.0949 0.634272 13.2024 0.5268 13.3349 0.5268H13.6217V0.24C13.6217 0.107472 13.7292 0 13.8617 0C13.9943 0 14.1017 0.107472 14.1017 0.24V0.5268H14.3885C14.5211 0.5268 14.6285 0.634272 14.6285 0.7668C14.6285 0.899328 14.5211 1.0068 14.3885 1.0068H14.1017V1.2936C14.1017 1.42613 13.9943 1.5336 13.8617 1.5336C13.7292 1.5336 13.6217 1.42613 13.6217 1.2936V1.0068H13.3349C13.2024 1.0068 13.0949 0.899328 13.0949 0.7668ZM17.858 4.2685H18.1448V4.5553C18.1448 4.68782 18.2522 4.7953 18.3848 4.7953C18.5174 4.7953 18.6248 4.68782 18.6248 4.5553V4.2685H18.9116C19.0442 4.2685 19.1516 4.16102 19.1516 4.0285C19.1516 3.89597 19.0442 3.7885 18.9116 3.7885H18.6248V3.50174C18.6248 3.36922 18.5174 3.26174 18.3848 3.26174C18.2522 3.26174 18.1448 3.36922 18.1448 3.50174V3.7885H17.858C17.7254 3.7885 17.618 3.89597 17.618 4.0285C17.618 4.16102 17.7254 4.2685 17.858 4.2685ZM8.81179 4.2685H9.09854V4.5553C9.09854 4.68782 9.20597 4.7953 9.33854 4.7953C9.47112 4.7953 9.57854 4.68782 9.57854 4.5553V4.2685H9.86534C9.99792 4.2685 10.1053 4.16102 10.1053 4.0285C10.1053 3.89597 9.99792 3.7885 9.86534 3.7885H9.57854V3.50174C9.57854 3.36922 9.47112 3.26174 9.33854 3.26174C9.20597 3.26174 9.09854 3.36922 9.09854 3.50174V3.7885H8.81179C8.67922 3.7885 8.57179 3.89597 8.57179 4.0285C8.57179 4.16102 8.67922 4.2685 8.81179 4.2685ZM24 21.7999C24 23.013 23.013 24 21.7999 24H18.1434H17.9507H13.5353C13.4027 24 13.2953 23.8925 13.2953 23.76C13.2953 23.6275 13.4027 23.52 13.5353 23.52H17.1403C17.1383 23.5164 17.1366 23.5126 17.1347 23.5089C17.1319 23.5036 17.1292 23.4983 17.1265 23.4929C17.1157 23.4716 17.1058 23.45 17.0967 23.4279C17.0953 23.4245 17.0937 23.4212 17.0923 23.4178C17.0825 23.393 17.0739 23.3677 17.0663 23.3422C17.0646 23.3364 17.063 23.3307 17.0615 23.3249C17.0547 23.3005 17.0487 23.2759 17.044 23.2509C17.0436 23.2488 17.0431 23.2469 17.0427 23.245C17.0379 23.2184 17.0345 23.1915 17.032 23.1644C17.0314 23.1581 17.0309 23.1517 17.0304 23.1454C17.0284 23.118 17.0272 23.0905 17.0277 23.0627L17.0552 21.2597C16.7244 21.1293 16.377 21.0633 16.0202 21.0633H14.4159C14.2833 21.0633 14.1759 20.9558 14.1759 20.8233C14.1759 20.6908 14.2833 20.5833 14.4159 20.5833H16.0202C16.3777 20.5833 16.7271 20.64 17.063 20.752L17.1348 16.0598L17.154 14.8077C17.1578 14.5557 17.2684 14.3287 17.4413 14.1682C17.2684 14.0077 17.1578 13.7808 17.154 13.5288L17.117 11.1162C16.9533 11.1346 16.7882 11.1449 16.6224 11.1449H12.941V23.76C12.941 23.8925 12.8336 24 12.701 24H11.5608H6.44789C6.31531 24 6.20789 23.8925 6.20789 23.76C6.20789 23.6275 6.31531 23.52 6.44789 23.52H10.2968C10.2212 23.4527 10.1501 23.3791 10.0849 23.2992C9.72168 22.8538 9.57965 22.2755 9.69518 21.7125L10.8747 15.965C10.9206 15.7411 10.9439 15.5118 10.9439 15.2833V11.1449H10.2138C9.99278 11.1449 9.76954 11.1311 9.55037 11.1039L1.84992 10.1476L0.791328 10.0162C0.340224 9.96019 0 9.57509 0 9.12048C0 8.62282 0.404928 8.21794 0.902592 8.21794H1.87954H7.48195C7.98365 8.21794 8.47651 8.0819 8.90717 7.82458C10.1006 7.11149 11.5988 7.08456 12.8168 7.75445C12.8935 7.79664 12.9411 7.87723 12.9411 7.96474V9.28987C12.9411 9.4224 12.8337 9.52987 12.7011 9.52987C12.5686 9.52987 12.4611 9.4224 12.4611 9.28987V8.10989C11.4156 7.58971 10.1609 7.63469 9.15341 8.23656C8.6483 8.53838 8.07029 8.69789 7.48195 8.69789H2.11949V9.69739L9.6096 10.6275C9.80923 10.6524 10.0126 10.6649 10.2139 10.6649H11.184H12.7011H16.6224C17.1315 10.6649 17.6334 10.566 18.1009 10.3792C18.113 10.3743 18.1253 10.3699 18.1373 10.3649C18.1688 10.352 18.1999 10.338 18.2311 10.3242C18.2547 10.3138 18.2785 10.3037 18.302 10.2927C18.3231 10.2829 18.3438 10.2724 18.3648 10.2622C18.398 10.246 18.4313 10.2299 18.4642 10.2127C18.4772 10.2059 18.4901 10.1986 18.5031 10.1917C18.5428 10.1704 18.5825 10.1487 18.6216 10.126C18.8111 10.0163 18.9922 9.89107 19.1623 9.75034L19.8805 9.156C19.876 9.14798 19.872 9.13973 19.8675 9.13162C19.8659 9.12859 19.8643 9.12557 19.8627 9.12254C19.8478 9.09504 19.8336 9.06725 19.82 9.03922C19.8179 9.03499 19.8159 9.03077 19.8139 9.02654C19.8008 8.99909 19.7882 8.97144 19.7763 8.94355C19.7744 8.93904 19.7724 8.93458 19.7705 8.93006C19.7586 8.90165 19.7473 8.87304 19.7366 8.84419C19.7351 8.84016 19.7336 8.83618 19.7321 8.83214C19.7208 8.80109 19.7101 8.76979 19.7003 8.7383C19.6997 8.73653 19.6991 8.73475 19.6985 8.73298C19.6684 8.63602 19.6448 8.53704 19.6284 8.43638C19.6174 8.4407 19.6063 8.44493 19.5953 8.4491C19.0391 8.65963 18.4033 8.52758 17.9755 8.11267L13.6218 3.89011L13.3137 4.19822L13.0056 4.50638L16.6759 8.29085L17.7195 9.36691C17.8118 9.46205 17.8094 9.61397 17.7144 9.70627C17.6677 9.75149 17.6074 9.774 17.5473 9.774C17.4846 9.774 17.4221 9.74962 17.375 9.70109L16.4021 8.69794H14.3812C14.0886 8.69794 13.7967 8.65906 13.5135 8.58235C13.3855 8.5477 13.3099 8.41589 13.3445 8.28797C13.3792 8.16005 13.5111 8.0844 13.6389 8.11906C13.8813 8.18467 14.131 8.21798 14.3812 8.21798H15.9365L12.4964 4.67088L11.627 3.77453C11.2894 3.42638 11.2937 2.86411 11.6366 2.5212C11.9795 2.17819 12.5418 2.17397 12.8899 2.5116L13.7863 3.38093C13.7864 3.38098 13.7865 3.38112 13.7865 3.38117L18.3096 7.76808C18.6045 8.05402 19.0424 8.14502 19.4253 8.00016C19.4861 7.97712 19.5463 7.95168 19.6059 7.92509C19.686 6.78437 20.6391 5.88058 21.7999 5.88058C23.013 5.88058 24 6.86755 24 8.0807C24 9.29386 23.013 10.2808 21.7999 10.2808C21.1495 10.2808 20.5643 9.99686 20.1612 9.54667L19.4682 10.1201C19.3152 10.2468 19.1542 10.3622 18.9869 10.4666L18.94 13.5288C18.9361 13.7808 18.8255 14.0077 18.6527 14.1683C18.8256 14.3288 18.9362 14.5557 18.94 14.8077L18.9592 16.0598C18.9592 16.0598 18.9592 16.0599 18.9592 16.0599C18.9592 16.0599 18.9592 16.0599 18.9592 16.06L19.0536 22.231H19.6424C19.6146 22.0915 19.5997 21.9475 19.5997 21.7999C19.5997 20.5868 20.5867 19.5998 21.7998 19.5998C23.013 19.5998 24 20.5868 24 21.7999ZM11.9715 3.44035L12.6712 4.16174L13.2771 3.55584L12.5557 2.85619C12.4761 2.77891 12.3721 2.74032 12.2682 2.74032C12.1621 2.74032 12.0562 2.78045 11.976 2.86056C11.8174 3.01925 11.8154 3.27931 11.9715 3.44035ZM20.0798 8.0807C20.0798 8.12011 20.0816 8.15923 20.0843 8.19826C20.085 8.20829 20.0857 8.21832 20.0866 8.22835C20.0898 8.26642 20.0939 8.30434 20.0996 8.34187C20.1002 8.34571 20.101 8.34941 20.1016 8.3532C20.1071 8.38723 20.1138 8.42098 20.1212 8.45453C20.1238 8.4661 20.1264 8.47766 20.1292 8.48918C20.1377 8.52398 20.147 8.55854 20.1576 8.59267C20.1605 8.6017 20.1637 8.61048 20.1667 8.61946C20.1757 8.64672 20.1854 8.6737 20.1958 8.70048C20.2005 8.71253 20.2051 8.72458 20.2101 8.73648C20.2233 8.76854 20.2374 8.80027 20.2527 8.83152C20.2577 8.84184 20.2632 8.85192 20.2684 8.86214C20.2814 8.88749 20.295 8.91254 20.3093 8.93731C20.3148 8.94682 20.3201 8.95646 20.3257 8.96582C20.344 8.99616 20.3634 9.02592 20.3837 9.05525C20.6942 9.50515 21.2131 9.80074 21.8 9.80074C22.7484 9.80074 23.5201 9.02909 23.5201 8.08066C23.5201 7.13218 22.7484 6.36053 21.8 6.36053C20.8515 6.36053 20.0798 7.13222 20.0798 8.0807ZM0.850512 9.53986L1.63954 9.63782V8.69794H0.902592C0.6696 8.69794 0.48 8.88749 0.48 9.12048C0.48 9.33336 0.639264 9.51365 0.850512 9.53986ZM11.424 11.1449V12.1331H12.4611V11.1449H11.424ZM12.4611 23.52V12.6131H11.424V15.2833C11.424 15.5441 11.3974 15.8059 11.3449 16.0615L10.1654 21.8089C10.079 22.23 10.1853 22.6626 10.4569 22.9958C10.7286 23.3289 11.131 23.52 11.5609 23.52H12.4611V23.52ZM18.4591 23.3878C18.5431 23.3026 18.5883 23.1898 18.5865 23.0701L18.4829 16.2999H17.6112L17.5076 23.0701C17.5074 23.0851 17.5079 23.0999 17.5091 23.1146C17.5177 23.2175 17.5615 23.3132 17.635 23.3878C17.7189 23.473 17.831 23.52 17.9507 23.52H18.1434C18.2631 23.52 18.3752 23.4731 18.4591 23.3878ZM18.4755 15.8199L18.4602 14.8151C18.4567 14.5908 18.2714 14.4083 18.0471 14.4083C17.8228 14.4083 17.6375 14.5907 17.634 14.815L17.6187 15.8199H18.4755ZM18.4602 13.5215L18.4655 13.176H17.6287L17.634 13.5215C17.6374 13.7458 17.8227 13.9283 18.047 13.9283C18.2713 13.9283 18.4567 13.7458 18.4602 13.5215ZM18.4858 10.7367C18.2003 10.8682 17.9028 10.9689 17.596 11.0375L17.6213 12.696H18.4728L18.5028 10.729C18.4992 10.7307 18.4956 10.7322 18.4919 10.734C18.4899 10.7349 18.4878 10.7357 18.4858 10.7367ZM20.4305 23.52C20.3312 23.4408 20.2388 23.3532 20.1546 23.2583C20.1515 23.2548 20.1484 23.2511 20.1453 23.2476C20.122 23.221 20.0993 23.1937 20.0772 23.166C20.0718 23.1592 20.0664 23.1524 20.0612 23.1456C20.0404 23.1189 20.0204 23.0917 20.0009 23.064C19.9967 23.058 19.9923 23.0521 19.9882 23.0461C19.9405 22.9771 19.8968 22.9053 19.8572 22.8309C19.856 22.8286 19.8548 22.8263 19.8536 22.824C19.8349 22.7887 19.8174 22.7528 19.8006 22.7164C19.7998 22.7146 19.7988 22.7128 19.7979 22.711H19.0611L19.0664 23.0596L19.0664 23.0627C19.0668 23.0905 19.0656 23.118 19.0636 23.1454C19.0632 23.1517 19.0627 23.158 19.0621 23.1644C19.0596 23.1915 19.0562 23.2184 19.0513 23.245C19.051 23.2469 19.0504 23.2488 19.0501 23.2508C19.0453 23.2758 19.0394 23.3005 19.0326 23.3249C19.031 23.3306 19.0295 23.3364 19.0278 23.3421C19.0201 23.3676 19.0116 23.3929 19.0018 23.4177C19.0004 23.4211 18.9988 23.4244 18.9974 23.4277C18.9884 23.4498 18.9783 23.4715 18.9675 23.4928C18.9648 23.4981 18.9622 23.5035 18.9594 23.5088C18.9575 23.5124 18.9558 23.5162 18.9538 23.5199H20.4305V23.52ZM23.52 21.7999C23.52 20.8514 22.7484 20.0798 21.7999 20.0798C20.8514 20.0798 20.0798 20.8514 20.0798 21.7999C20.0798 22.0047 20.1159 22.2012 20.1818 22.3835C20.1826 22.3853 20.1836 22.387 20.1843 22.3889C20.1996 22.4309 20.2165 22.4721 20.2349 22.5124C20.2351 22.5129 20.2353 22.5132 20.2355 22.5136C20.2718 22.5933 20.3141 22.6693 20.3614 22.7414C20.3624 22.7429 20.3633 22.7445 20.3643 22.746C20.3875 22.781 20.4119 22.815 20.4373 22.848C20.4392 22.8504 20.4411 22.8528 20.443 22.8552C20.7344 23.2287 21.1731 23.4723 21.6549 23.5134C21.6626 23.5141 21.6704 23.5147 21.6781 23.5152C21.7184 23.5181 21.759 23.52 21.7998 23.52C22.7484 23.52 23.52 22.7484 23.52 21.7999ZM13.5353 21.0634H13.696C13.8286 21.0634 13.936 20.9559 13.936 20.8234C13.936 20.6908 13.8286 20.5834 13.696 20.5834H13.5353C13.4027 20.5834 13.2953 20.6908 13.2953 20.8234C13.2953 20.9559 13.4028 21.0634 13.5353 21.0634ZM12.7011 9.66946C12.5685 9.66946 12.4611 9.77693 12.4611 9.90946V10.1708C12.4611 10.3033 12.5685 10.4108 12.7011 10.4108C12.8337 10.4108 12.9411 10.3033 12.9411 10.1708V9.90946C12.9411 9.77693 12.8337 9.66946 12.7011 9.66946ZM5.55202 23.52H5.232C5.09942 23.52 4.992 23.6275 4.992 23.76C4.992 23.8925 5.09942 24 5.232 24H5.55202C5.68459 24 5.79202 23.8925 5.79202 23.76C5.79202 23.6275 5.68459 23.52 5.55202 23.52Z" fill="#1C1D21"/>
</svg>
