<svg width="24" height="24" viewBox="0 0 24 24" fill="none" xmlns="http://www.w3.org/2000/svg">
<path d="M18.2363 13.6951L16.9385 12.3973C16.4531 11.9119 15.6715 11.8945 15.1649 12.3578L14.9702 12.5359L15.7046 12.9045C16.1109 13.1085 16.2749 13.603 16.071 14.0093C15.8671 14.4155 15.3725 14.5795 14.9663 14.3756L13.8578 13.8193C13.7735 14.0291 13.7245 14.2536 13.7154 14.4839L13.7038 14.7771C13.6686 15.6699 13.0431 16.43 12.1738 16.6364L11.2901 16.8462V19.8148H13.4666C13.9738 19.8148 14.4601 19.6134 14.8188 19.2548L18.2363 15.8373C18.8278 15.2457 18.8278 14.2866 18.2363 13.6951Z" fill="#83E1E5"/>
<path d="M6.59361 13.533L8.37657 11.0681L6.83366 10.2937L4.52942 13.4311C4.22035 13.8519 4.24051 14.4298 4.57814 14.8281L8.24232 19.1501C8.59982 19.5718 9.12465 19.8149 9.67747 19.8149H11.29V16.8462L6.59361 13.533Z" fill="#AAB1BA"/>
<path d="M15.7046 12.9046L9.35394 9.71703L9.74005 9.18327C9.997 8.80753 9.9093 8.29565 9.54196 8.02685C9.15532 7.74394 8.61095 7.83965 8.34397 8.23738L7.82202 8.94807L7.14925 8.61039C6.74303 8.40649 6.24844 8.5705 6.04453 8.97673C5.84063 9.38295 6.00464 9.87759 6.41087 10.0814L14.9663 14.3756C15.3725 14.5795 15.8671 14.4155 16.071 14.0093C16.2749 13.6031 16.1109 13.1085 15.7046 12.9046Z" fill="#FDDF7F"/>
<path d="M18.978 13.4223C20.3308 13.4223 21.4274 12.3257 21.4274 10.973C21.4274 9.62025 20.3308 8.52364 18.978 8.52364C17.6253 8.52364 16.5287 9.62025 16.5287 10.973C16.5287 12.3257 17.6253 13.4223 18.978 13.4223Z" fill="#FDDF7F"/>
<path d="M17.3423 4.71192C17.3423 4.57935 17.4497 4.47192 17.5823 4.47192H17.8691V4.18512C17.8691 4.05255 17.9765 3.94512 18.1091 3.94512C18.2416 3.94512 18.3491 4.05255 18.3491 4.18512V4.47192H18.6359C18.7684 4.47192 18.8759 4.57935 18.8759 4.71192C18.8759 4.8445 18.7684 4.95192 18.6359 4.95192H18.3491V5.23867C18.3491 5.37125 18.2416 5.47867 18.1091 5.47867C17.9765 5.47867 17.8691 5.37125 17.8691 5.23867V4.95192H17.5823C17.4497 4.95192 17.3423 4.8445 17.3423 4.71192ZM3.15374 17.3242H3.44054V17.611C3.44054 17.7436 3.54802 17.851 3.68054 17.851C3.81307 17.851 3.92054 17.7436 3.92054 17.611V17.3242H4.20734C4.33987 17.3242 4.44734 17.2168 4.44734 17.0842C4.44734 16.9516 4.33987 16.8442 4.20734 16.8442H3.92054V16.5574C3.92054 16.4248 3.81307 16.3174 3.68054 16.3174C3.54802 16.3174 3.44054 16.4248 3.44054 16.5574V16.8442H3.15374C3.02122 16.8442 2.91374 16.9516 2.91374 17.0842C2.91374 17.2168 3.02122 17.3242 3.15374 17.3242ZM8.076 8.60222C8.18285 8.68066 8.33304 8.65771 8.41147 8.55086L8.53733 8.3795C8.53934 8.37672 8.54131 8.37398 8.54318 8.37115C8.63558 8.23354 8.77632 8.14195 8.93962 8.11325C9.10291 8.08459 9.26645 8.1227 9.40018 8.22053C9.66456 8.41397 9.72682 8.77738 9.54192 9.04776C9.46709 9.15715 9.49517 9.30653 9.60456 9.38131C9.64598 9.40968 9.69312 9.42322 9.73982 9.42322C9.81638 9.42322 9.89165 9.38664 9.93816 9.31867C10.2702 8.83311 10.1584 8.18054 9.68366 7.83312C9.44347 7.6573 9.14962 7.58875 8.85653 7.64045C8.56517 7.69162 8.3136 7.85448 8.14766 8.09914L8.02464 8.26666C7.94616 8.3735 7.96915 8.52374 8.076 8.60222ZM10.565 18.938V18.7697C10.565 18.6372 10.4576 18.5297 10.325 18.5297C10.1925 18.5297 10.085 18.6372 10.085 18.7697V18.938C10.085 19.0706 10.1925 19.178 10.325 19.178C10.4576 19.178 10.565 19.0706 10.565 18.938ZM22.3667 19.8149C22.3667 19.9475 22.2592 20.0549 22.1267 20.0549H13.4666H11.29H9.67752H1.89734C1.76482 20.0549 1.65734 19.9475 1.65734 19.8149C1.65734 19.6823 1.76482 19.5749 1.89734 19.5749H8.33434C8.23565 19.494 8.14325 19.4043 8.0593 19.3053L4.39512 14.9833C3.9839 14.4983 3.95957 13.8016 4.33603 13.2891L6.20323 10.7467C6.28171 10.6398 6.43195 10.617 6.5387 10.6953C6.64555 10.7738 6.66854 10.924 6.59006 11.0308L4.72286 13.5732C4.47854 13.9059 4.49434 14.3581 4.76126 14.6729L8.42544 18.9949C8.73792 19.3635 9.1943 19.5749 9.67752 19.5749H11.05V16.9706L10.565 16.6285V18.003C10.565 18.1356 10.4576 18.243 10.325 18.243C10.1925 18.243 10.085 18.1356 10.085 18.003V16.2899L6.45528 13.7292C6.40286 13.6922 6.36744 13.6358 6.35688 13.5725C6.34632 13.5093 6.36158 13.4444 6.39917 13.3924L7.7593 11.512C7.83696 11.4046 7.98706 11.3805 8.09438 11.4582C8.20181 11.5359 8.2259 11.6859 8.14819 11.7933L6.93038 13.4769L11.3399 16.5876L12.1183 16.4028C12.8797 16.2221 13.4331 15.5497 13.464 14.7677C13.4692 14.6353 13.5794 14.5314 13.7132 14.5374C13.8456 14.5426 13.9488 14.6543 13.9436 14.7866C13.9043 15.7829 13.1992 16.6396 12.2292 16.8699L11.53 17.0359V19.5748H13.4666C13.9132 19.5748 14.3332 19.4009 14.649 19.0851L18.0665 15.6676C18.3072 15.4268 18.4399 15.1067 18.4399 14.7662C18.4399 14.4257 18.3072 14.1056 18.0665 13.8648L17.0764 12.8748C17.0764 12.8747 17.0763 12.8747 17.0763 12.8746C17.0762 12.8746 17.0762 12.8745 17.0761 12.8745L16.7688 12.5671C16.3937 12.192 15.8053 12.1605 15.3933 12.4799L15.8123 12.6901C16.3361 12.9531 16.5483 13.5931 16.2854 14.117C16.158 14.3708 15.9395 14.5597 15.67 14.6491C15.56 14.6856 15.4469 14.7037 15.3344 14.7037C15.171 14.7037 15.0088 14.6656 14.8585 14.5902L6.30317 10.296C5.77934 10.033 5.56709 9.39298 5.82998 8.86906C5.95733 8.61533 6.17592 8.4263 6.44544 8.33698C6.71491 8.2476 7.0031 8.26848 7.25688 8.39592L14.9302 12.2473L15.0029 12.1807C15.4025 11.8152 15.9435 11.7012 16.4311 11.8341C16.1157 10.896 16.3304 9.8173 17.0763 9.07128C17.5843 8.5633 18.2596 8.28355 18.978 8.28355C19.6964 8.28355 20.3717 8.5633 20.8797 9.07128C21.9282 10.1198 21.9282 11.826 20.8797 12.8745C20.3717 13.3825 19.6964 13.6622 18.978 13.6622C18.813 13.6622 18.6505 13.6468 18.4916 13.6179C18.7684 13.9368 18.9199 14.3396 18.9199 14.7661C18.9199 15.2348 18.7374 15.6755 18.4059 16.0069L14.9884 19.4244C14.9351 19.4778 14.8792 19.5278 14.8215 19.5748H22.1267C22.2592 19.5749 22.3667 19.6823 22.3667 19.8149ZM15.597 13.1191L7.04155 8.8249C6.95918 8.78357 6.87014 8.76264 6.78058 8.76264C6.7188 8.76264 6.65683 8.77258 6.5965 8.79254C6.4487 8.84155 6.3288 8.94523 6.25896 9.08438C6.11477 9.37166 6.23117 9.72278 6.5185 9.86698L15.0739 14.1612C15.213 14.2309 15.3711 14.2424 15.5189 14.1935C15.6668 14.1445 15.7866 14.0408 15.8565 13.9016C16.0007 13.6143 15.8843 13.2633 15.597 13.1191ZM17.4155 12.5349L17.4162 12.5356C17.8334 12.9526 18.3881 13.1823 18.978 13.1823C19.5682 13.1823 20.123 12.9525 20.5403 12.5352C21.4017 11.6738 21.4017 10.2722 20.5403 9.41074C20.123 8.99347 19.5682 8.76365 18.978 8.76365C18.3879 8.76365 17.8331 8.99347 17.4158 9.41074C16.5545 10.272 16.5544 11.6734 17.4155 12.5349ZM23.76 19.5749H23.2789C23.1464 19.5749 23.0389 19.6823 23.0389 19.8149C23.0389 19.9475 23.1464 20.0549 23.2789 20.0549H23.76C23.8925 20.0549 24 19.9475 24 19.8149C24 19.6823 23.8925 19.5749 23.76 19.5749ZM0.741696 19.5749H0.24C0.107472 19.5749 0 19.6823 0 19.8149C0 19.9475 0.107472 20.0549 0.24 20.0549H0.741696C0.874224 20.0549 0.981696 19.9475 0.981696 19.8149C0.981696 19.6823 0.874224 19.5749 0.741696 19.5749Z" fill="#1C1D21"/>
</svg>
