<svg width="18" height="18" viewBox="0 0 18 18" fill="none" xmlns="http://www.w3.org/2000/svg">
<path fill-rule="evenodd" clip-rule="evenodd" d="M15.7503 5.00535C15.7503 6.5268 14.5164 7.7607 12.9949 7.7607C11.4735 7.7607 10.2402 6.5268 10.2402 5.00535C10.2402 3.4839 11.4735 2.25 12.9949 2.25C14.5164 2.25 15.7503 3.4839 15.7503 5.00535Z" stroke="black" stroke-width="0.8" stroke-linecap="round" stroke-linejoin="round"/>
<path fill-rule="evenodd" clip-rule="evenodd" d="M7.76003 5.00535C7.76003 6.5268 6.5268 7.7607 5.00467 7.7607C3.4839 7.7607 2.25 6.5268 2.25 5.00535C2.25 3.4839 3.4839 2.25 5.00467 2.25C6.5268 2.25 7.76003 3.4839 7.76003 5.00535Z" stroke="black" stroke-width="0.8" stroke-linecap="round" stroke-linejoin="round"/>
<path fill-rule="evenodd" clip-rule="evenodd" d="M15.7503 12.9465C15.7503 14.4679 14.5164 15.7011 12.9949 15.7011C11.4735 15.7011 10.2402 14.4679 10.2402 12.9465C10.2402 11.425 11.4735 10.1911 12.9949 10.1911C14.5164 10.1911 15.7503 11.425 15.7503 12.9465Z" stroke="black" stroke-width="0.8" stroke-linecap="round" stroke-linejoin="round"/>
<path fill-rule="evenodd" clip-rule="evenodd" d="M7.76003 12.9465C7.76003 14.4679 6.5268 15.7011 5.00467 15.7011C3.4839 15.7011 2.25 14.4679 2.25 12.9465C2.25 11.425 3.4839 10.1911 5.00467 10.1911C6.5268 10.1911 7.76003 11.425 7.76003 12.9465Z" stroke="black" stroke-width="0.8" stroke-linecap="round" stroke-linejoin="round"/>
</svg>
