<svg width="24" height="24" viewBox="0 0 24 24" fill="none" xmlns="http://www.w3.org/2000/svg">
<g clip-path="url(#clip0_1_134)">
<path d="M12.435 15.0449C11.7907 15.0449 11.162 15.2429 10.634 15.6121L9.80036 16.1952C9.36136 16.5022 8.85116 16.6919 8.31822 16.7462L0.995476 17.493C0.566404 17.5367 0.240051 17.8981 0.240051 18.3294C0.240051 18.7937 0.616468 19.1701 1.08077 19.1701H13.4426V15.0449H12.435Z" fill="#AAB1BA"/>
<path d="M2.34658 17.3553L0.995475 17.493C0.566403 17.5368 0.240051 17.8981 0.240051 18.3294C0.240051 18.7937 0.616467 19.1701 1.08077 19.1701H2.34658V17.3553Z" fill="#FDDF7F"/>
<path d="M15.5577 9.9132C16.9207 9.9132 18.0256 8.80825 18.0256 7.44523C18.0256 6.08221 16.9207 4.97726 15.5577 4.97726C14.1947 4.97726 13.0897 6.08221 13.0897 7.44523C13.0897 8.80825 14.1947 9.9132 15.5577 9.9132Z" fill="#FDDF7F"/>
<path d="M16.3272 14.0157V11.9856C16.3272 11.5713 16.0087 11.2147 15.5949 11.1952C15.153 11.1744 14.7881 11.5265 14.7881 11.9638V14.2339C14.7881 14.4309 14.8667 14.6197 15.0064 14.7587L19.2454 18.9751C19.3709 19.1 19.5408 19.1701 19.7179 19.1701C20.309 19.1701 20.6105 18.4606 20.2004 18.0351L16.3272 14.0157Z" fill="#FDDF7F"/>
<path d="M20.2004 14.403L17.6727 11.78V13.7788L19.2454 15.3431C19.3709 15.468 19.5408 15.538 19.7179 15.538C20.3089 15.538 20.6105 14.8286 20.2004 14.403Z" fill="#FDDF7F"/>
<path d="M14.7882 14.2339V11.9639C14.7882 11.5265 15.153 11.1744 15.5949 11.1952C16.0088 11.2147 16.3271 11.5713 16.3271 11.9856V14.0157L17.6728 15.4121V11.4395C17.6728 10.5965 16.9895 9.9132 16.1465 9.9132H14.9688C14.1259 9.9132 13.4425 10.5965 13.4425 11.4395V15.7562V19.1701H15.1755C16.3291 19.1701 17.2995 18.3877 17.5862 17.3248L15.0063 14.7587C14.8667 14.6198 14.7882 14.4309 14.7882 14.2339Z" fill="#83E1E5"/>
<path d="M10.612 5.36252C10.6114 5.22995 10.7184 5.12209 10.851 5.12152L11.1378 5.12032L11.1366 4.83352C11.136 4.70094 11.243 4.59308 11.3756 4.59251C11.5081 4.59193 11.616 4.69892 11.6166 4.8315L11.6178 5.1183L11.9046 5.1171C12.0371 5.11652 12.145 5.22352 12.1456 5.35609C12.1461 5.48867 12.0392 5.59652 11.9066 5.5971L11.6198 5.5983L11.621 5.8851C11.6216 6.01768 11.5146 6.12553 11.382 6.12611C11.2494 6.12668 11.1416 6.01969 11.141 5.88712L11.1398 5.60032L10.853 5.60152C10.7204 5.60204 10.6125 5.49505 10.612 5.36252ZM10.8633 8.0488L11.1501 8.0476L11.1513 8.3344C11.1519 8.46697 11.2597 8.57392 11.3923 8.57339C11.5249 8.57281 11.6318 8.46496 11.6313 8.33238L11.6301 8.04558L11.9169 8.04438C12.0495 8.0438 12.1564 7.93595 12.1559 7.80337C12.1553 7.6708 12.0475 7.56385 11.9149 7.56438L11.6281 7.56558L11.6269 7.27883C11.6263 7.14625 11.5184 7.03931 11.3859 7.03984C11.2533 7.04041 11.1464 7.14827 11.1469 7.28084L11.1481 7.5676L10.8613 7.5688C10.7287 7.56937 10.6218 7.67723 10.6223 7.8098C10.6229 7.94238 10.7307 8.04937 10.8633 8.0488ZM22.8108 15.2524L20.5336 15.262C20.5462 15.2379 20.5582 15.2134 20.569 15.1878C20.7128 14.8455 20.6414 14.4674 20.3826 14.2011L18.5974 12.3641C18.5051 12.2691 18.3532 12.2668 18.258 12.3592C18.163 12.4516 18.1608 12.6036 18.2532 12.6987L20.0384 14.5356C20.1625 14.6633 20.1955 14.8377 20.1264 15.0019C20.0575 15.1661 19.9099 15.2646 19.7318 15.2654C19.6173 15.2659 19.5094 15.2219 19.428 15.1415L18.6021 14.3271C18.5078 14.2339 18.3558 14.2351 18.2627 14.3294C18.1697 14.4237 18.1707 14.5757 18.265 14.6688L19.0909 15.4832C19.2633 15.6532 19.4916 15.7464 19.7338 15.7454L22.8129 15.7323C22.9454 15.7318 23.0524 15.6239 23.0518 15.4913C23.0513 15.3588 22.9434 15.2518 22.8108 15.2524ZM23.5906 15.7291L23.7758 15.7284C23.9084 15.7278 24.0153 15.6199 24.0148 15.4874C24.0143 15.3548 23.9064 15.2478 23.7738 15.2484L23.5886 15.2491C23.4561 15.2497 23.3491 15.3576 23.3496 15.4901C23.3502 15.6227 23.4581 15.7297 23.5906 15.7291ZM23.0672 19.1234C23.0678 19.256 22.9608 19.3638 22.8282 19.3644L19.7492 19.3774C19.5069 19.3784 19.2787 19.2853 19.1062 19.1153L17.7104 17.7386C17.2863 18.727 16.3069 19.392 15.2068 19.3966L13.4739 19.404L1.11215 19.4562C0.516225 19.4587 0.0294094 18.976 0.0268654 18.3801C0.0245134 17.8236 0.440049 17.3596 0.993393 17.3008L8.31296 16.5231C8.80376 16.471 9.27642 16.2929 9.67971 16.0084L10.511 15.4218C11.0804 15.02 11.7498 14.806 12.4469 14.8031L13.2144 14.7998L13.2002 11.4344C13.1972 10.7122 13.6305 10.0884 14.2517 9.81227C13.4096 9.35555 12.8348 8.46529 12.8305 7.44169C12.8242 5.94856 14.0338 4.72864 15.527 4.7223C17.0201 4.71601 18.24 5.92566 18.2464 7.4188C18.2507 8.4424 17.6834 9.33745 16.8453 9.80128C17.4688 10.0721 17.9074 10.6923 17.9105 11.4145L17.9268 15.2902L20.3981 17.8331C20.6569 18.0994 20.7283 18.4775 20.5845 18.8199C20.5737 18.8454 20.5617 18.87 20.5491 18.894L22.8263 18.8844C22.9587 18.8839 23.0666 18.9908 23.0672 19.1234ZM15.5478 9.65824C16.7763 9.65305 17.7715 8.64937 17.7663 7.42086C17.761 6.19235 16.7574 5.19712 15.5289 5.2023C14.3004 5.20748 13.3052 6.21116 13.3103 7.43968C13.3156 8.66819 14.3193 9.66342 15.5478 9.65824ZM2.61013 17.6117L2.61589 18.9698L13.2318 18.925L13.2164 15.2798L12.4488 15.2831C12.4387 15.2831 12.4285 15.2836 12.4183 15.2838L12.4251 16.8905C12.4257 17.0231 12.3187 17.131 12.1861 17.1315C12.0535 17.1321 11.9457 17.0251 11.9451 16.8926L11.9385 15.3305C11.5264 15.4055 11.1353 15.5687 10.7877 15.814L9.95639 16.4006C9.48637 16.7322 8.93562 16.9396 8.3636 17.0005L2.61013 17.6117ZM1.11008 18.9762L2.13589 18.9719L2.13037 17.6628L1.04408 17.7782C0.736546 17.8108 0.505521 18.0687 0.506865 18.3781C0.508209 18.7092 0.778834 18.9776 1.11008 18.9762ZM17.3375 17.3709L14.8494 14.9169C14.7841 14.8525 14.7291 14.7789 14.6846 14.6995C14.6034 14.5549 14.5582 14.3905 14.5575 14.2231L14.5479 11.9531C14.5467 11.6744 14.6566 11.4146 14.8575 11.2213C15.0332 11.0523 15.2569 10.9544 15.4976 10.9409C15.5319 10.939 15.5666 10.9388 15.6016 10.9403C16.1406 10.9634 16.5646 11.414 16.5669 11.9663L16.5751 13.8996L17.4445 14.7942L17.4303 11.4166C17.4273 10.7073 16.8478 10.1327 16.1385 10.1357L14.9609 10.1407C14.2517 10.1437 13.6771 10.7232 13.6801 11.4325L13.6953 15.0378L13.7117 18.923L15.2047 18.9167C16.1769 18.9125 17.0351 18.2836 17.3375 17.3709ZM19.4433 18.7736C19.5248 18.8539 19.6327 18.8979 19.7471 18.8975C19.9252 18.8967 20.0728 18.7982 20.1417 18.634C20.2108 18.4697 20.1778 18.2954 20.0537 18.1677L16.1635 14.1647C16.1202 14.1202 16.0958 14.0606 16.0956 13.9984L16.087 11.9683C16.0857 11.6778 15.8589 11.4317 15.5811 11.4198C15.5667 11.4193 15.5524 11.4197 15.5381 11.4202C15.5314 11.4205 15.5247 11.4207 15.5181 11.4212C15.5064 11.4221 15.4949 11.4234 15.4834 11.425C15.478 11.4257 15.4725 11.4265 15.467 11.4274C15.4547 11.4295 15.4425 11.4321 15.4305 11.4351C15.4257 11.4363 15.421 11.4373 15.4164 11.4386C15.404 11.442 15.3918 11.446 15.3796 11.4503C15.3754 11.4518 15.3711 11.4531 15.3669 11.4547C15.3549 11.4594 15.343 11.4647 15.3313 11.4702C15.3273 11.4722 15.3231 11.4738 15.3191 11.4759C15.3077 11.4817 15.2966 11.4881 15.2857 11.4947C15.2816 11.4972 15.2774 11.4993 15.2733 11.5019C15.2627 11.5087 15.2525 11.5162 15.2423 11.5238C15.2383 11.5268 15.2341 11.5294 15.2302 11.5325C15.2189 11.5414 15.2081 11.5511 15.1974 11.561C15.1951 11.5632 15.1926 11.565 15.1903 11.5672C15.0981 11.6559 15.0424 11.7714 15.0304 11.8968C15.0286 11.9147 15.0278 11.9328 15.0279 11.9511L15.0375 14.2211C15.0379 14.3203 15.0685 14.4176 15.1235 14.4993C15.1419 14.5265 15.1629 14.5519 15.1864 14.5751L17.6744 17.0289L17.7772 17.1303L19.4433 18.7736ZM23.7892 18.8804L23.604 18.8811C23.4714 18.8817 23.3644 18.9896 23.365 19.1222C23.3656 19.2547 23.4734 19.3617 23.606 19.3611L23.7912 19.3604C23.9238 19.3598 24.0308 19.2519 24.0302 19.1194C24.0296 18.9868 23.9217 18.8798 23.7892 18.8804ZM12.1907 18.213C12.3233 18.2125 12.4302 18.1046 12.4297 17.972L12.429 17.812C12.4284 17.6795 12.3206 17.5725 12.188 17.5731C12.0554 17.5736 11.9485 17.6815 11.949 17.8141L11.9497 17.974C11.9502 18.1066 12.0581 18.2136 12.1907 18.213Z" fill="#1C1D21"/>
</g>
<defs>
<clipPath id="clip0_1_134">
<rect width="24" height="24" fill="white"/>
</clipPath>
</defs>
</svg>
