<svg width="19" height="19" viewBox="0 0 19 19" fill="none" xmlns="http://www.w3.org/2000/svg">
<path d="M8.14364 14.8828H1.67111" stroke="black" stroke-opacity="0.58" stroke-width="1.5" stroke-linecap="round" stroke-linejoin="round"/>
<path fill-rule="evenodd" clip-rule="evenodd" d="M12.205 14.8837C12.205 16.9255 12.8859 17.6055 14.9267 17.6055C16.9676 17.6055 17.6485 16.9255 17.6485 14.8837C17.6485 12.8419 16.9676 12.1619 14.9267 12.1619C12.8859 12.1619 12.205 12.8419 12.205 14.8837Z" stroke="black" stroke-opacity="0.58" stroke-width="1.5" stroke-linecap="round" stroke-linejoin="round"/>
<path d="M11.1765 4.39418H17.6482" stroke="black" stroke-opacity="0.58" stroke-width="1.5" stroke-linecap="round" stroke-linejoin="round"/>
<path fill-rule="evenodd" clip-rule="evenodd" d="M7.11525 4.39284C7.11525 2.35195 6.43436 1.67105 4.39346 1.67105C2.35167 1.67105 1.67078 2.35195 1.67078 4.39284C1.67078 6.43463 2.35167 7.11463 4.39346 7.11463C6.43436 7.11463 7.11525 6.43463 7.11525 4.39284Z" stroke="black" stroke-opacity="0.58" stroke-width="1.5" stroke-linecap="round" stroke-linejoin="round"/>
</svg>
