<svg width="14" height="13" viewBox="0 0 14 13" fill="none" xmlns="http://www.w3.org/2000/svg">
<path fill-rule="evenodd" clip-rule="evenodd" d="M7.15647 0.692669C8.24047 0.00733582 9.68046 -0.181998 10.9245 0.216669C13.6305 1.08934 14.4705 4.03934 13.7191 6.38667C12.5598 10.0733 7.60847 12.8233 7.39847 12.9387C7.3238 12.98 7.24113 13.0007 7.15847 13.0007C7.0758 13.0007 6.9938 12.9807 6.91913 12.94C6.71046 12.826 1.79513 10.1167 0.597131 6.38734C0.596465 6.38734 0.596465 6.38667 0.596465 6.38667C-0.155535 4.03867 0.681798 1.088 3.38513 0.216669C4.65447 -0.193998 6.0378 -0.0133309 7.15647 0.692669ZM3.6918 1.16867C1.50446 1.874 0.955132 4.22667 1.54913 6.082C2.4838 8.99 6.17647 11.3413 7.1578 11.9233C8.14247 11.3353 11.8618 8.958 12.7665 6.08467C13.3605 4.22734 12.8091 1.87467 10.6185 1.16867C9.55713 0.828003 8.31913 1.03534 7.46447 1.69667C7.2858 1.834 7.0378 1.83667 6.8578 1.70067C5.95247 1.02 4.7698 0.820669 3.6918 1.16867ZM9.97847 2.4926C10.8871 2.7866 11.5238 3.59127 11.6018 4.5426C11.6238 4.81794 11.4191 5.05927 11.1438 5.08127C11.1298 5.0826 11.1165 5.08327 11.1025 5.08327C10.8445 5.08327 10.6258 4.88527 10.6045 4.62394C10.5605 4.07594 10.1938 3.61327 9.6718 3.4446C9.40847 3.35927 9.26447 3.07727 9.34913 2.81527C9.43513 2.5526 9.71447 2.40994 9.97847 2.4926Z" fill="#FF0000" fill-opacity="0.46"/>
</svg>
