<svg width="24" height="24" viewBox="0 0 24 24" fill="none" xmlns="http://www.w3.org/2000/svg">
<path d="M13.58 15.0905C12.513 14.1834 11.0415 13.9064 9.71351 14.3714H9.71346C9.16223 14.5644 8.56899 14.6045 7.99679 14.4874L2.11727 13.2844L1.8056 14.8077L9.68168 17.4647C9.89672 17.5373 10.1161 17.5965 10.3384 17.642L11.4112 17.8615H13.013L13.58 15.0905Z" fill="#AAB1BA"/>
<path d="M19.5607 17.0704C19.5607 16.9979 19.5644 16.9262 19.5715 16.8556L15.2372 15.9688C14.6562 15.8499 14.118 15.5766 13.6793 15.1777C13.6466 15.148 13.6135 15.119 13.58 15.0905L13.013 17.8615H17.9229C18.2842 17.8615 18.5772 18.1545 18.5772 18.5158C18.5772 18.5211 18.5765 18.5263 18.5764 18.5317C18.5765 18.5369 18.5772 18.5421 18.5772 18.5474C18.5772 18.8704 18.3313 19.1358 18.0166 19.1669C18.609 19.19 19.2005 19.0568 19.7295 18.775L20.1644 18.5433C19.7912 18.1644 19.5607 17.6444 19.5607 17.0704Z" fill="#83E1E5"/>
<path d="M1.09206 13.0747C0.708062 12.9961 0.333038 13.2437 0.254462 13.6277C0.182654 13.9786 0.383582 14.328 0.722942 14.4425L1.80563 14.8078L2.11729 13.2844L1.09206 13.0747Z" fill="#FDDF7F"/>
<path d="M21.6604 19.1701C22.82 19.1701 23.76 18.23 23.76 17.0704C23.76 15.9108 22.82 14.9708 21.6604 14.9708C20.5008 14.9708 19.5607 15.9108 19.5607 17.0704C19.5607 18.23 20.5008 19.1701 21.6604 19.1701Z" fill="#FDDF7F"/>
<path d="M17.923 19.1701H8.72893C8.36759 19.1701 8.07465 18.8772 8.07465 18.5158C8.07465 18.1545 8.36759 17.8615 8.72893 17.8615H17.923C18.2843 17.8615 18.5772 18.1545 18.5772 18.5158C18.5772 18.8772 18.2843 19.1701 17.923 19.1701Z" fill="#FDDF7F"/>
<path d="M17.2011 6.29966C17.2011 6.16708 17.3085 6.05966 17.4411 6.05966H17.7279V5.77286C17.7279 5.64028 17.8353 5.53286 17.9679 5.53286C18.1004 5.53286 18.2079 5.64028 18.2079 5.77286V6.05966H18.4947C18.6272 6.05966 18.7347 6.16708 18.7347 6.29966C18.7347 6.43223 18.6272 6.53966 18.4947 6.53966H18.2079V6.82646C18.2079 6.95903 18.1004 7.06646 17.9679 7.06646C17.8353 7.06646 17.7279 6.95903 17.7279 6.82646V6.53966H17.4411C17.3086 6.53966 17.2011 6.43223 17.2011 6.29966ZM14.9243 5.5967H15.2111V5.8835C15.2111 6.01607 15.3185 6.1235 15.4511 6.1235C15.5837 6.1235 15.6911 6.01607 15.6911 5.8835V5.5967H15.9779C16.1105 5.5967 16.2179 5.48927 16.2179 5.3567C16.2179 5.22412 16.1105 5.1167 15.9779 5.1167H15.6911V4.8299C15.6911 4.69732 15.5837 4.5899 15.4511 4.5899C15.3185 4.5899 15.2111 4.69732 15.2111 4.8299V5.1167H14.9243C14.7917 5.1167 14.6843 5.22412 14.6843 5.3567C14.6843 5.48927 14.7917 5.5967 14.9243 5.5967ZM24 17.0704C24 18.3605 22.9504 19.4101 21.6603 19.4101C21.074 19.4101 20.5379 19.1928 20.1269 18.8352L19.8424 18.9868C19.3213 19.2644 18.7382 19.4095 18.1477 19.4095C18.1009 19.4095 18.0541 19.4086 18.0072 19.4067C18.0054 19.4067 18.0039 19.4062 18.0021 19.4061C17.976 19.4084 17.9497 19.41 17.9229 19.41H8.72892H5.87969C5.74711 19.41 5.63969 19.3026 5.63969 19.17C5.63969 19.0375 5.74711 18.93 5.87969 18.93H7.93711C7.87198 18.8061 7.83463 18.6653 7.83463 18.5158C7.83463 18.0227 8.23577 17.6215 8.72892 17.6215H12.8172L13.3158 15.1844C13.1137 15.0254 12.897 14.8899 12.6702 14.7778L12.3813 15.9615C12.3546 16.0712 12.2564 16.1446 12.1483 16.1446C12.1295 16.1446 12.1104 16.1424 12.0913 16.1377C11.9625 16.1063 11.8836 15.9765 11.915 15.8477L12.2217 14.5912C11.445 14.3264 10.5877 14.3195 9.79279 14.5978C9.20081 14.805 8.56323 14.8482 7.94868 14.7225L2.30436 13.5677L2.20515 14.0525L2.08327 14.6482L8.50822 16.8156C8.63379 16.8579 8.70123 16.9941 8.65889 17.1197C8.61655 17.2453 8.48038 17.3128 8.35476 17.2704L1.72889 15.0351C1.72884 15.0351 1.72879 15.0351 1.72875 15.0351L0.646203 14.6699C0.192987 14.517 -0.0765331 14.0483 0.0193228 13.5796C0.0702028 13.331 0.214779 13.1172 0.426459 12.9774C0.638139 12.8377 0.891675 12.7886 1.14017 12.8396L2.16535 13.0493C2.1655 13.0493 2.16564 13.0494 2.16579 13.0494L8.04483 14.2523C8.57436 14.3606 9.12391 14.3234 9.63406 14.1449C10.602 13.806 11.652 13.8414 12.5814 14.2129C12.5938 14.2171 12.6059 14.2219 12.6173 14.2278C13.0185 14.3926 13.3969 14.6199 13.7353 14.9077C13.7709 14.9379 13.8061 14.9687 13.8407 15.0003C14.2472 15.3699 14.7467 15.6235 15.2851 15.7337L19.3748 16.5705C19.6045 15.5199 20.5417 14.7308 21.6602 14.7308C22.9504 14.7308 24 15.7803 24 17.0704ZM0.799611 14.2151L1.62492 14.4934L1.83406 13.4714L1.04393 13.3098H1.04388C1.0122 13.3033 0.980379 13.3001 0.948795 13.3001C0.857787 13.3001 0.768651 13.3267 0.690987 13.378C0.586251 13.4471 0.514731 13.5529 0.489579 13.6759C0.442203 13.9077 0.575451 14.1395 0.799611 14.2151ZM8.72892 18.9301H17.9229C18.1467 18.9301 18.3291 18.7517 18.3365 18.5297C18.3365 18.5282 18.3365 18.5267 18.3365 18.5253C18.3366 18.5212 18.3368 18.5171 18.3371 18.513C18.337 18.5063 18.3364 18.4998 18.3361 18.4932C18.3357 18.4858 18.3355 18.4783 18.3347 18.4711C18.334 18.4645 18.3328 18.4582 18.3318 18.4518C18.3306 18.4446 18.3297 18.4373 18.3282 18.4303C18.3269 18.4239 18.325 18.4177 18.3234 18.4114C18.3215 18.4045 18.32 18.3976 18.3178 18.3909C18.3158 18.3846 18.3134 18.3786 18.3111 18.3725C18.3087 18.366 18.3065 18.3594 18.3038 18.3531C18.3012 18.3471 18.2981 18.3413 18.2952 18.3354C18.2922 18.3293 18.2895 18.3231 18.2862 18.3171C18.283 18.3114 18.2794 18.3059 18.276 18.3003C18.2725 18.2946 18.2692 18.2888 18.2654 18.2832C18.2616 18.2777 18.2574 18.2725 18.2534 18.2672C18.2494 18.2619 18.2457 18.2566 18.2415 18.2516C18.2371 18.2463 18.2323 18.2414 18.2277 18.2363C18.2234 18.2316 18.2193 18.2268 18.2148 18.2223C18.2098 18.2174 18.2046 18.213 18.1994 18.2084C18.1948 18.2041 18.1903 18.1997 18.1854 18.1957C18.18 18.1913 18.1742 18.1873 18.1686 18.1832C18.1636 18.1794 18.1588 18.1755 18.1536 18.172C18.1476 18.168 18.1413 18.1645 18.1352 18.1608C18.13 18.1577 18.1249 18.1543 18.1195 18.1514C18.1129 18.1478 18.106 18.1448 18.0992 18.1415C18.094 18.139 18.0889 18.1363 18.0835 18.134C18.0761 18.1309 18.0684 18.1283 18.0607 18.1257C18.0557 18.1238 18.0508 18.1217 18.0456 18.1201C18.0378 18.1177 18.0296 18.116 18.0216 18.114C18.0164 18.1127 18.0113 18.1111 18.006 18.11C17.9974 18.1082 17.9886 18.1072 17.9799 18.106C17.9749 18.1054 17.97 18.1043 17.965 18.1038C17.9512 18.1024 17.9371 18.1017 17.9229 18.1017H13.0138C13.0136 18.1017 13.0135 18.1017 13.0133 18.1017C13.0132 18.1017 13.013 18.1017 13.0128 18.1017H8.72892C8.50049 18.1017 8.31463 18.2875 8.31463 18.5159C8.31463 18.7444 8.50049 18.9301 8.72892 18.9301ZM19.7871 18.4724C19.5563 18.1654 19.4066 17.8089 19.3483 17.4301C19.3476 17.4254 19.347 17.4207 19.3463 17.416C19.3418 17.3854 19.3378 17.3545 19.3345 17.3236C19.3334 17.3136 19.3324 17.3036 19.3315 17.2935C19.3289 17.2665 19.3268 17.2393 19.3253 17.212C19.3246 17.2016 19.3239 17.1912 19.3234 17.1808C19.3217 17.1442 19.3206 17.1074 19.3206 17.0705C19.3206 17.0635 19.3206 17.0564 19.3207 17.0494L15.189 16.204C14.6583 16.0955 14.1603 15.8664 13.7337 15.5365L13.3071 17.6216H17.9228C18.4159 17.6216 18.8171 18.0227 18.8171 18.5159C18.8171 18.5213 18.817 18.5266 18.8167 18.5319C18.8169 18.5364 18.8171 18.542 18.8171 18.5475C18.8171 18.6614 18.7953 18.7703 18.7554 18.87C19.0551 18.8108 19.3456 18.7077 19.6167 18.5632L19.7871 18.4724ZM23.52 17.0704C23.52 16.045 22.6857 15.2108 21.6603 15.2108C20.6755 15.2108 19.8676 15.9803 19.805 16.9496C19.8045 16.9581 19.8035 16.9665 19.803 16.975C19.8015 17.0066 19.8006 17.0385 19.8006 17.0705C19.8006 17.102 19.8015 17.1334 19.803 17.1646C19.8034 17.1718 19.8042 17.179 19.8046 17.1862C19.8061 17.2103 19.8077 17.2344 19.8102 17.2583C19.8108 17.2645 19.8117 17.2706 19.8124 17.2769C19.8152 17.3019 19.8182 17.327 19.822 17.3518C19.8225 17.3553 19.8232 17.3587 19.8237 17.3622C19.8281 17.3899 19.8329 17.4174 19.8385 17.4446C19.8386 17.445 19.8387 17.4453 19.8387 17.4456C20.0127 18.2918 20.7634 18.9301 21.6604 18.9301C22.6857 18.9301 23.52 18.0958 23.52 17.0704ZM11.9114 17.1155C12.0195 17.1155 12.1176 17.0421 12.1444 16.9324L12.1848 16.7669C12.2162 16.6381 12.1374 16.5082 12.0086 16.4768C11.8799 16.4453 11.7499 16.5243 11.7185 16.6531L11.6781 16.8186C11.6467 16.9474 11.7256 17.0773 11.8543 17.1087C11.8735 17.1133 11.8926 17.1155 11.9114 17.1155ZM4.88091 18.9295H4.62036C4.48779 18.9295 4.38036 19.0369 4.38036 19.1695C4.38036 19.3021 4.48779 19.4095 4.62036 19.4095H4.88091C5.01348 19.4095 5.12091 19.3021 5.12091 19.1695C5.12091 19.0369 5.01343 18.9295 4.88091 18.9295Z" fill="#1C1D21"/>
</svg>
