<svg width="20" height="21" viewBox="0 0 20 21" fill="none" xmlns="http://www.w3.org/2000/svg">
<path fill-rule="evenodd" clip-rule="evenodd" d="M20 4C19.9999 3.42335 19.8752 2.85353 19.6343 2.3296C19.3934 1.80567 19.0421 1.34002 18.6044 0.964563C18.1667 0.589104 17.6531 0.312714 17.0986 0.154339C16.5441 -0.00403668 15.962 -0.0406538 15.392 0.0469971L8.392 1.124C7.44752 1.26925 6.58625 1.74782 5.96406 2.47309C5.34187 3.19836 4.99989 4.12241 5 5.078V13.841C4.31482 13.516 3.54262 13.4223 2.7996 13.5741C2.05658 13.7258 1.38296 14.1148 0.880102 14.6825C0.377247 15.2501 0.0723684 15.9658 0.0113509 16.7217C-0.0496666 17.4776 0.136478 18.2328 0.54177 18.8738C0.947062 19.5148 1.54957 20.0068 2.25863 20.2757C2.96768 20.5447 3.74492 20.5761 4.47336 20.3652C5.2018 20.1543 5.84203 19.7125 6.29771 19.1063C6.75339 18.5001 6.99985 17.7624 7 17.004V5.078C6.99971 4.60003 7.17059 4.13777 7.48171 3.77492C7.79282 3.41208 8.22359 3.17265 8.696 3.1L15.696 2.023C15.9811 1.97915 16.2723 1.9975 16.5497 2.07677C16.827 2.15605 17.0839 2.29437 17.3028 2.48227C17.5216 2.67016 17.6973 2.90317 17.8176 3.16532C17.938 3.42747 18.0002 3.71255 18 4.001V10.841C17.3148 10.516 16.5426 10.4223 15.7996 10.5741C15.0566 10.7258 14.383 11.1148 13.8801 11.6825C13.3772 12.2501 13.0724 12.9658 13.0114 13.7217C12.9503 14.4776 13.1365 15.2328 13.5418 15.8738C13.9471 16.5148 14.5496 17.0068 15.2586 17.2757C15.9677 17.5447 16.7449 17.5761 17.4734 17.3652C18.2018 17.1543 18.842 16.7125 19.2977 16.1063C19.7534 15.5001 19.9998 14.7624 20 14.004V4.001V4ZM18 14.004C18 13.6062 17.842 13.2246 17.5607 12.9433C17.2794 12.662 16.8978 12.504 16.5 12.504C16.1022 12.504 15.7206 12.662 15.4393 12.9433C15.158 13.2246 15 13.6062 15 14.004C15 14.4018 15.158 14.7834 15.4393 15.0647C15.7206 15.346 16.1022 15.504 16.5 15.504C16.8978 15.504 17.2794 15.346 17.5607 15.0647C17.842 14.7834 18 14.4018 18 14.004ZM5 17.004C5 16.807 4.96121 16.612 4.88582 16.43C4.81044 16.248 4.69995 16.0826 4.56066 15.9433C4.42138 15.804 4.25602 15.6936 4.07403 15.6182C3.89204 15.5428 3.69699 15.504 3.5 15.504C3.30302 15.504 3.10797 15.5428 2.92598 15.6182C2.74399 15.6936 2.57863 15.804 2.43934 15.9433C2.30005 16.0826 2.18957 16.248 2.11418 16.43C2.0388 16.612 2 16.807 2 17.004C2 17.4018 2.15804 17.7834 2.43934 18.0647C2.72065 18.346 3.10218 18.504 3.5 18.504C3.89783 18.504 4.27936 18.346 4.56066 18.0647C4.84197 17.7834 5 17.4018 5 17.004Z" fill="black" fill-opacity="0.44"/>
</svg>
