<svg width="18" height="20" viewBox="0 0 18 20" fill="none" xmlns="http://www.w3.org/2000/svg">
<path d="M7.12648 2.0605C6.78267 3.52842 6.73591 5.05027 6.98896 6.53653C7.24201 8.02278 7.78976 9.44342 8.59997 10.7149C9.41018 11.9863 10.4665 13.0828 11.7068 13.94C12.947 14.7971 14.3462 15.3976 15.822 15.706C15.0461 16.5088 14.1169 17.1475 13.0894 17.5843C12.0619 18.021 10.9572 18.2469 9.84073 18.2485C9.73723 18.2485 9.63223 18.2522 9.52723 18.2485C7.58351 18.18 5.7252 17.4328 4.27513 16.1366C2.82506 14.8405 1.87487 13.0773 1.58964 11.1534C1.30441 9.22951 1.70216 7.26648 2.71378 5.60536C3.72541 3.94423 5.28699 2.68998 7.12723 2.0605H7.12648ZM8.23498 0.25C8.19096 0.250148 8.14705 0.254164 8.10373 0.262C5.71619 0.686892 3.57025 1.98001 2.07905 3.8924C0.587861 5.80478 -0.143144 8.20121 0.0267813 10.6203C0.196707 13.0394 1.25555 15.3101 2.99944 16.9952C4.74334 18.6804 7.04899 19.6608 9.47248 19.7477C9.59548 19.7523 9.71848 19.7477 9.83998 19.7477C11.4142 19.7488 12.9655 19.3707 14.3627 18.6455C15.7599 17.9204 16.962 16.8694 17.8672 15.5815C17.9406 15.4705 17.9834 15.3421 17.9914 15.2093C17.9993 15.0765 17.9722 14.944 17.9127 14.825C17.8531 14.706 17.7633 14.6048 17.6523 14.5316C17.5412 14.4583 17.4128 14.4156 17.28 14.4078C15.7817 14.2763 14.3337 13.802 13.0479 13.0216C11.7621 12.2413 10.673 11.1757 9.86466 9.90729C9.05636 8.63888 8.55055 7.20159 8.38631 5.70652C8.22207 4.21145 8.40381 2.69863 8.91748 1.285C8.96118 1.17185 8.97721 1.04989 8.96423 0.929292C8.95125 0.808692 8.90964 0.692939 8.84286 0.591676C8.77609 0.490414 8.68608 0.406574 8.58035 0.347141C8.47461 0.287708 8.3562 0.254403 8.23498 0.25Z" fill="black" fill-opacity="0.44"/>
</svg>
